<?xml version="1.0" encoding="UTF-8" standalone="no"?>
<!DOCTYPE svg PUBLIC "-//W3C//DTD SVG 1.1//EN"
 "http://www.w3.org/Graphics/SVG/1.1/DTD/svg11.dtd">
<!-- Generated by graphviz version 14.1.3 (20260303.0454)
 -->
<!-- Title: mindmap Pages: 1 -->
<svg width="4800pt" height="1105pt"
 viewBox="0.00 0.00 4800.00 1105.00" xmlns="http://www.w3.org/2000/svg" xmlns:xlink="http://www.w3.org/1999/xlink">
<g id="graph0" class="graph" transform="scale(1.68078 1.68078) rotate(0) translate(43.2 614.23)">
<title>mindmap</title>
<polygon fill="#0f172a" stroke="none" points="-43.2,43.2 -43.2,-614.23 2812.62,-614.23 2812.62,43.2 -43.2,43.2"/>
<!-- center -->
<g id="node1" class="node">
<title>center</title>
<ellipse fill="#1e3a5f" stroke="#3b82f6" stroke-width="3" cx="1659.15" cy="-522.07" rx="100.8" ry="43.2"/>
<text xml:space="preserve" text-anchor="middle" x="1659.15" y="-527.07" font-family="Helvetica Neue Bold" font-size="20.00" fill="#e2e8f0">30&#45;Day Process</text>
<text xml:space="preserve" text-anchor="middle" x="1659.15" y="-503.07" font-family="Helvetica Neue Bold" font-size="20.00" fill="#e2e8f0">Improvement Plan</text>
</g>
<!-- week12 -->
<g id="node2" class="node">
<title>week12</title>
<path fill="#3b1010" stroke="#ef4444" stroke-width="2.5" d="M931.8,-428.87C931.8,-428.87 724.5,-428.87 724.5,-428.87 718.5,-428.87 712.5,-422.87 712.5,-416.87 712.5,-416.87 712.5,-404.87 712.5,-404.87 712.5,-398.87 718.5,-392.87 724.5,-392.87 724.5,-392.87 931.8,-392.87 931.8,-392.87 937.8,-392.87 943.8,-398.87 943.8,-404.87 943.8,-404.87 943.8,-416.87 943.8,-416.87 943.8,-422.87 937.8,-428.87 931.8,-428.87"/>
<text xml:space="preserve" text-anchor="middle" x="828.15" y="-406.57" font-family="Helvetica Neue Bold" font-size="14.00" fill="#f87171">WEEK 1&#45;2 &#160;| &#160;Stop the Bleeding</text>
</g>
<!-- center&#45;&gt;week12 -->
<g id="edge1" class="edge">
<title>center&#45;&gt;week12</title>
<path fill="none" stroke="#ef4444" stroke-width="3" d="M1562.64,-536.44C1156.07,-596.33 1122.79,-587.75 860.03,-430.04"/>
</g>
<!-- week23 -->
<g id="node3" class="node">
<title>week23</title>
<path fill="#3b2a0a" stroke="#f59e0b" stroke-width="2.5" d="M1754.18,-428.87C1754.18,-428.87 1564.12,-428.87 1564.12,-428.87 1558.12,-428.87 1552.12,-422.87 1552.12,-416.87 1552.12,-416.87 1552.12,-404.87 1552.12,-404.87 1552.12,-398.87 1558.12,-392.87 1564.12,-392.87 1564.12,-392.87 1754.18,-392.87 1754.18,-392.87 1760.18,-392.87 1766.18,-398.87 1766.18,-404.87 1766.18,-404.87 1766.18,-416.87 1766.18,-416.87 1766.18,-422.87 1760.18,-428.87 1754.18,-428.87"/>
<text xml:space="preserve" text-anchor="middle" x="1659.15" y="-406.57" font-family="Helvetica Neue Bold" font-size="14.00" fill="#fbbf24">WEEK 2&#45;3 &#160;| &#160;Create Rhythm</text>
</g>
<!-- center&#45;&gt;week23 -->
<g id="edge2" class="edge">
<title>center&#45;&gt;week23</title>
<path fill="none" stroke="#f59e0b" stroke-width="3" d="M1672.97,-478.01C1673.4,-466.46 1670.5,-453.24 1664.27,-429.83"/>
</g>
<!-- week34 -->
<g id="node4" class="node">
<title>week34</title>
<path fill="#0a3b1a" stroke="#22c55e" stroke-width="2.5" d="M2466.8,-428.87C2466.8,-428.87 2259.5,-428.87 2259.5,-428.87 2253.5,-428.87 2247.5,-422.87 2247.5,-416.87 2247.5,-416.87 2247.5,-404.87 2247.5,-404.87 2247.5,-398.87 2253.5,-392.87 2259.5,-392.87 2259.5,-392.87 2466.8,-392.87 2466.8,-392.87 2472.8,-392.87 2478.8,-398.87 2478.8,-404.87 2478.8,-404.87 2478.8,-416.87 2478.8,-416.87 2478.8,-422.87 2472.8,-428.87 2466.8,-428.87"/>
<text xml:space="preserve" text-anchor="middle" x="2363.15" y="-406.57" font-family="Helvetica Neue Bold" font-size="14.00" fill="#4ade80">WEEK 3&#45;4 &#160;| &#160;Measure &amp; Adjust</text>
</g>
<!-- center&#45;&gt;week34 -->
<g id="edge3" class="edge">
<title>center&#45;&gt;week34</title>
<path fill="none" stroke="#22c55e" stroke-width="3" d="M1761.11,-518.81C2119.01,-507.06 2159.49,-500.5 2319.85,-430.06"/>
</g>
<!-- item1 -->
<g id="node5" class="node">
<title>item1</title>
<path fill="#1e293b" stroke="#ef4444" stroke-width="1.5" d="M433.17,-342.87C433.17,-342.87 309.12,-342.87 309.12,-342.87 303.12,-342.87 297.12,-336.87 297.12,-330.87 297.12,-330.87 297.12,-292.59 297.12,-292.59 297.12,-286.59 303.12,-280.59 309.12,-280.59 309.12,-280.59 433.17,-280.59 433.17,-280.59 439.17,-280.59 445.17,-286.59 445.17,-292.59 445.17,-292.59 445.17,-330.87 445.17,-330.87 445.17,-336.87 439.17,-342.87 433.17,-342.87"/>
<text xml:space="preserve" text-anchor="middle" x="371.15" y="-322.83" font-family="Helvetica Neue Bold" font-size="12.00" fill="#f87171">#1</text>
<text xml:space="preserve" text-anchor="middle" x="371.15" y="-307.83" font-family="Helvetica Neue Bold" font-size="12.00" fill="#f87171">Appoint Onboarding</text>
<text xml:space="preserve" text-anchor="middle" x="371.15" y="-292.83" font-family="Helvetica Neue Bold" font-size="12.00" fill="#f87171">Quarterbacks (Day 1)</text>
</g>
<!-- week12&#45;&gt;item1 -->
<g id="edge4" class="edge">
<title>week12&#45;&gt;item1</title>
<path fill="none" stroke="#ef4444" stroke-width="2" d="M711.35,-396.14C557.03,-376.3 508.56,-367.32 445.82,-343.13"/>
</g>
<!-- item2 -->
<g id="node6" class="node">
<title>item2</title>
<path fill="#1e293b" stroke="#ef4444" stroke-width="1.5" d="M821.17,-342.87C821.17,-342.87 685.12,-342.87 685.12,-342.87 679.12,-342.87 673.12,-336.87 673.12,-330.87 673.12,-330.87 673.12,-292.59 673.12,-292.59 673.12,-286.59 679.12,-280.59 685.12,-280.59 685.12,-280.59 821.17,-280.59 821.17,-280.59 827.17,-280.59 833.17,-286.59 833.17,-292.59 833.17,-292.59 833.17,-330.87 833.17,-330.87 833.17,-336.87 827.17,-342.87 821.17,-342.87"/>
<text xml:space="preserve" text-anchor="middle" x="753.15" y="-322.83" font-family="Helvetica Neue Bold" font-size="12.00" fill="#f87171">#2</text>
<text xml:space="preserve" text-anchor="middle" x="753.15" y="-307.83" font-family="Helvetica Neue Bold" font-size="12.00" fill="#f87171">Kill Sequential Reviews</text>
<text xml:space="preserve" text-anchor="middle" x="753.15" y="-292.83" font-family="Helvetica Neue Bold" font-size="12.00" fill="#f87171">Run Parallel (Day 3)</text>
</g>
<!-- week12&#45;&gt;item2 -->
<g id="edge5" class="edge">
<title>week12&#45;&gt;item2</title>
<path fill="none" stroke="#ef4444" stroke-width="2" d="M802.76,-391.78C776.97,-371.91 768.28,-362.43 761.75,-343.57"/>
</g>
<!-- item3 -->
<g id="node7" class="node">
<title>item3</title>
<path fill="#1e293b" stroke="#ef4444" stroke-width="1.5" d="M1041.8,-342.87C1041.8,-342.87 924.5,-342.87 924.5,-342.87 918.5,-342.87 912.5,-336.87 912.5,-330.87 912.5,-330.87 912.5,-292.59 912.5,-292.59 912.5,-286.59 918.5,-280.59 924.5,-280.59 924.5,-280.59 1041.8,-280.59 1041.8,-280.59 1047.8,-280.59 1053.8,-286.59 1053.8,-292.59 1053.8,-292.59 1053.8,-330.87 1053.8,-330.87 1053.8,-336.87 1047.8,-342.87 1041.8,-342.87"/>
<text xml:space="preserve" text-anchor="middle" x="983.15" y="-322.83" font-family="Helvetica Neue Bold" font-size="12.00" fill="#f87171">#3</text>
<text xml:space="preserve" text-anchor="middle" x="983.15" y="-307.83" font-family="Helvetica Neue Bold" font-size="12.00" fill="#f87171">Paper Pre&#45;Screen</text>
<text xml:space="preserve" text-anchor="middle" x="983.15" y="-292.83" font-family="Helvetica Neue Bold" font-size="12.00" fill="#f87171">(Mini RFP on Paper)</text>
</g>
<!-- week12&#45;&gt;item3 -->
<g id="edge6" class="edge">
<title>week12&#45;&gt;item3</title>
<path fill="none" stroke="#ef4444" stroke-width="2" d="M846.52,-391.75C865.08,-373.22 878.63,-363.86 918.53,-343.59"/>
</g>
<!-- item4 -->
<g id="node8" class="node">
<title>item4</title>
<path fill="#1e293b" stroke="#f59e0b" stroke-width="1.5" d="M1566.68,-342.87C1566.68,-342.87 1481.62,-342.87 1481.62,-342.87 1475.62,-342.87 1469.62,-336.87 1469.62,-330.87 1469.62,-330.87 1469.62,-292.59 1469.62,-292.59 1469.62,-286.59 1475.62,-280.59 1481.62,-280.59 1481.62,-280.59 1566.68,-280.59 1566.68,-280.59 1572.68,-280.59 1578.68,-286.59 1578.68,-292.59 1578.68,-292.59 1578.68,-330.87 1578.68,-330.87 1578.68,-336.87 1572.68,-342.87 1566.68,-342.87"/>
<text xml:space="preserve" text-anchor="middle" x="1524.15" y="-322.83" font-family="Helvetica Neue Bold" font-size="12.00" fill="#fbbf24">#4</text>
<text xml:space="preserve" text-anchor="middle" x="1524.15" y="-307.83" font-family="Helvetica Neue Bold" font-size="12.00" fill="#fbbf24">Tiered Review</text>
<text xml:space="preserve" text-anchor="middle" x="1524.15" y="-292.83" font-family="Helvetica Neue Bold" font-size="12.00" fill="#fbbf24">3 Risk Tiers</text>
</g>
<!-- week23&#45;&gt;item4 -->
<g id="edge7" class="edge">
<title>week23&#45;&gt;item4</title>
<path fill="none" stroke="#f59e0b" stroke-width="2" d="M1640.45,-391.75C1624.61,-376.27 1611.78,-366.79 1574.9,-343.44"/>
</g>
<!-- item5 -->
<g id="node9" class="node">
<title>item5</title>
<path fill="#1e293b" stroke="#f59e0b" stroke-width="1.5" d="M1910.68,-342.87C1910.68,-342.87 1789.62,-342.87 1789.62,-342.87 1783.62,-342.87 1777.62,-336.87 1777.62,-330.87 1777.62,-330.87 1777.62,-292.59 1777.62,-292.59 1777.62,-286.59 1783.62,-280.59 1789.62,-280.59 1789.62,-280.59 1910.68,-280.59 1910.68,-280.59 1916.68,-280.59 1922.68,-286.59 1922.68,-292.59 1922.68,-292.59 1922.68,-330.87 1922.68,-330.87 1922.68,-336.87 1916.68,-342.87 1910.68,-342.87"/>
<text xml:space="preserve" text-anchor="middle" x="1850.15" y="-322.83" font-family="Helvetica Neue Bold" font-size="12.00" fill="#fbbf24">#5</text>
<text xml:space="preserve" text-anchor="middle" x="1850.15" y="-307.83" font-family="Helvetica Neue Bold" font-size="12.00" fill="#fbbf24">Weekly Prioritization</text>
<text xml:space="preserve" text-anchor="middle" x="1850.15" y="-292.83" font-family="Helvetica Neue Bold" font-size="12.00" fill="#fbbf24">Committee (30 min)</text>
</g>
<!-- week23&#45;&gt;item5 -->
<g id="edge8" class="edge">
<title>week23&#45;&gt;item5</title>
<path fill="none" stroke="#f59e0b" stroke-width="2" d="M1723.3,-391.65C1777.73,-374.7 1797.08,-365.34 1820,-343.51"/>
</g>
<!-- item6 -->
<g id="node10" class="node">
<title>item6</title>
<path fill="#1e293b" stroke="#22c55e" stroke-width="1.5" d="M2407.55,-342.87C2407.55,-342.87 2318.75,-342.87 2318.75,-342.87 2312.75,-342.87 2306.75,-336.87 2306.75,-330.87 2306.75,-330.87 2306.75,-292.59 2306.75,-292.59 2306.75,-286.59 2312.75,-280.59 2318.75,-280.59 2318.75,-280.59 2407.55,-280.59 2407.55,-280.59 2413.55,-280.59 2419.55,-286.59 2419.55,-292.59 2419.55,-292.59 2419.55,-330.87 2419.55,-330.87 2419.55,-336.87 2413.55,-342.87 2407.55,-342.87"/>
<text xml:space="preserve" text-anchor="middle" x="2363.15" y="-322.83" font-family="Helvetica Neue Bold" font-size="12.00" fill="#4ade80">#6</text>
<text xml:space="preserve" text-anchor="middle" x="2363.15" y="-307.83" font-family="Helvetica Neue Bold" font-size="12.00" fill="#4ade80">Visible Kanban</text>
<text xml:space="preserve" text-anchor="middle" x="2363.15" y="-292.83" font-family="Helvetica Neue Bold" font-size="12.00" fill="#4ade80">Board</text>
</g>
<!-- week34&#45;&gt;item6 -->
<g id="edge9" class="edge">
<title>week34&#45;&gt;item6</title>
<path fill="none" stroke="#22c55e" stroke-width="2" d="M2370.81,-391.93C2378.82,-371.15 2380.11,-361.53 2374.7,-343.46"/>
</g>
<!-- item7 -->
<g id="node11" class="node">
<title>item7</title>
<path fill="#1e293b" stroke="#22c55e" stroke-width="1.5" d="M2673.68,-342.87C2673.68,-342.87 2582.62,-342.87 2582.62,-342.87 2576.62,-342.87 2570.62,-336.87 2570.62,-330.87 2570.62,-330.87 2570.62,-292.59 2570.62,-292.59 2570.62,-286.59 2576.62,-280.59 2582.62,-280.59 2582.62,-280.59 2673.68,-280.59 2673.68,-280.59 2679.68,-280.59 2685.68,-286.59 2685.68,-292.59 2685.68,-292.59 2685.68,-330.87 2685.68,-330.87 2685.68,-336.87 2679.68,-342.87 2673.68,-342.87"/>
<text xml:space="preserve" text-anchor="middle" x="2628.15" y="-322.83" font-family="Helvetica Neue Bold" font-size="12.00" fill="#4ade80">#7</text>
<text xml:space="preserve" text-anchor="middle" x="2628.15" y="-307.83" font-family="Helvetica Neue Bold" font-size="12.00" fill="#4ade80">SLA Deadlines</text>
<text xml:space="preserve" text-anchor="middle" x="2628.15" y="-292.83" font-family="Helvetica Neue Bold" font-size="12.00" fill="#4ade80">with Escalation</text>
</g>
<!-- week34&#45;&gt;item7 -->
<g id="edge10" class="edge">
<title>week34&#45;&gt;item7</title>
<path fill="none" stroke="#22c55e" stroke-width="2" d="M2442.06,-391.68C2520.43,-372.22 2549.1,-362.78 2580.99,-343.55"/>
</g>
<!-- i1a -->
<g id="node12" class="node">
<title>i1a</title>
<path fill="#111827" stroke="#334155" stroke-width="1.5" d="M102.3,-224.96C102.3,-224.96 12,-224.96 12,-224.96 6,-224.96 0,-218.96 0,-212.96 0,-212.96 0,-197.19 0,-197.19 0,-191.19 6,-185.19 12,-185.19 12,-185.19 102.3,-185.19 102.3,-185.19 108.3,-185.19 114.3,-191.19 114.3,-197.19 114.3,-197.19 114.3,-212.96 114.3,-212.96 114.3,-218.96 108.3,-224.96 102.3,-224.96"/>
<text xml:space="preserve" text-anchor="middle" x="57.15" y="-207.77" font-family="Helvetica Neue" font-size="9.00" fill="#94a3b8">Assign 2&#45;3 dedicated</text>
<text xml:space="preserve" text-anchor="middle" x="57.15" y="-196.52" font-family="Helvetica Neue" font-size="9.00" fill="#94a3b8">facilitators</text>
</g>
<!-- item1&#45;&gt;i1a -->
<g id="edge11" class="edge">
<title>item1&#45;&gt;i1a</title>
<path fill="none" stroke="#5a2020" stroke-width="2" d="M296.51,-293.39C172.48,-262.66 144.09,-253.4 93.29,-225.52"/>
</g>
<!-- i1b -->
<g id="node13" class="node">
<title>i1b</title>
<path fill="#111827" stroke="#334155" stroke-width="1.5" d="M221.55,-224.96C221.55,-224.96 144.75,-224.96 144.75,-224.96 138.75,-224.96 132.75,-218.96 132.75,-212.96 132.75,-212.96 132.75,-197.19 132.75,-197.19 132.75,-191.19 138.75,-185.19 144.75,-185.19 144.75,-185.19 221.55,-185.19 221.55,-185.19 227.55,-185.19 233.55,-191.19 233.55,-197.19 233.55,-197.19 233.55,-212.96 233.55,-212.96 233.55,-218.96 227.55,-224.96 221.55,-224.96"/>
<text xml:space="preserve" text-anchor="middle" x="183.15" y="-207.77" font-family="Helvetica Neue" font-size="9.00" fill="#94a3b8">Own each request</text>
<text xml:space="preserve" text-anchor="middle" x="183.15" y="-196.52" font-family="Helvetica Neue" font-size="9.00" fill="#94a3b8">end&#45;to&#45;end</text>
</g>
<!-- item1&#45;&gt;i1b -->
<g id="edge12" class="edge">
<title>item1&#45;&gt;i1b</title>
<path fill="none" stroke="#5a2020" stroke-width="2" d="M296.83,-281.96C244.12,-260.08 228.06,-249.86 203.33,-225.6"/>
</g>
<!-- i1c -->
<g id="node14" class="node">
<title>i1c</title>
<path fill="#111827" stroke="#334155" stroke-width="1.5" d="M358.92,-224.96C358.92,-224.96 263.38,-224.96 263.38,-224.96 257.37,-224.96 251.37,-218.96 251.37,-212.96 251.37,-212.96 251.37,-197.19 251.37,-197.19 251.37,-191.19 257.38,-185.19 263.38,-185.19 263.38,-185.19 358.92,-185.19 358.92,-185.19 364.92,-185.19 370.92,-191.19 370.92,-197.19 370.92,-197.19 370.92,-212.96 370.92,-212.96 370.92,-218.96 364.92,-224.96 358.92,-224.96"/>
<text xml:space="preserve" text-anchor="middle" x="311.15" y="-207.77" font-family="Helvetica Neue" font-size="9.00" fill="#94a3b8">Chase non&#45;responsive</text>
<text xml:space="preserve" text-anchor="middle" x="311.15" y="-196.52" font-family="Helvetica Neue" font-size="9.00" fill="#94a3b8">reviewers</text>
</g>
<!-- item1&#45;&gt;i1c -->
<g id="edge13" class="edge">
<title>item1&#45;&gt;i1c</title>
<path fill="none" stroke="#5a2020" stroke-width="2" d="M339.94,-280.14C321.05,-259.72 316.63,-249.37 313.47,-225.64"/>
</g>
<!-- i1d -->
<g id="node15" class="node">
<title>i1d</title>
<path fill="#111827" stroke="#334155" stroke-width="1.5" d="M461.67,-224.96C461.67,-224.96 400.62,-224.96 400.62,-224.96 394.62,-224.96 388.62,-218.96 388.62,-212.96 388.62,-212.96 388.62,-197.19 388.62,-197.19 388.62,-191.19 394.62,-185.19 400.62,-185.19 400.62,-185.19 461.67,-185.19 461.67,-185.19 467.67,-185.19 473.67,-191.19 473.67,-197.19 473.67,-197.19 473.67,-212.96 473.67,-212.96 473.67,-218.96 467.67,-224.96 461.67,-224.96"/>
<text xml:space="preserve" text-anchor="middle" x="431.15" y="-207.77" font-family="Helvetica Neue" font-size="9.00" fill="#94a3b8">Escalate stalls</text>
<text xml:space="preserve" text-anchor="middle" x="431.15" y="-196.52" font-family="Helvetica Neue" font-size="9.00" fill="#94a3b8">after 48 hours</text>
</g>
<!-- item1&#45;&gt;i1d -->
<g id="edge14" class="edge">
<title>item1&#45;&gt;i1d</title>
<path fill="none" stroke="#5a2020" stroke-width="2" d="M375.12,-280.12C379.01,-259.69 386.27,-249.35 410.09,-225.62"/>
</g>
<!-- i1e -->
<g id="node16" class="node">
<title>i1e</title>
<path fill="#111827" stroke="#334155" stroke-width="1.5" d="M540.55,-129.56C540.55,-129.56 463.75,-129.56 463.75,-129.56 457.75,-129.56 451.75,-123.56 451.75,-117.56 451.75,-117.56 451.75,-101.78 451.75,-101.78 451.75,-95.78 457.75,-89.78 463.75,-89.78 463.75,-89.78 540.55,-89.78 540.55,-89.78 546.55,-89.78 552.55,-95.78 552.55,-101.78 552.55,-101.78 552.55,-117.56 552.55,-117.56 552.55,-123.56 546.55,-129.56 540.55,-129.56"/>
<text xml:space="preserve" text-anchor="middle" x="502.15" y="-112.37" font-family="Helvetica Neue" font-size="9.00" fill="#94a3b8">Weekly leadership</text>
<text xml:space="preserve" text-anchor="middle" x="502.15" y="-101.12" font-family="Helvetica Neue" font-size="9.00" fill="#94a3b8">cycle time report</text>
</g>
<!-- item1&#45;&gt;i1e -->
<g id="edge15" class="edge">
<title>item1&#45;&gt;i1e</title>
<path fill="none" stroke="#5a2020" stroke-width="2" d="M376.61,-279.85C388.94,-212.04 399.52,-198.05 478.12,-130.3"/>
</g>
<!-- i2a -->
<g id="node17" class="node">
<title>i2a</title>
<path fill="#111827" stroke="#334155" stroke-width="1.5" d="M636.55,-224.96C636.55,-224.96 541.75,-224.96 541.75,-224.96 535.75,-224.96 529.75,-218.96 529.75,-212.96 529.75,-212.96 529.75,-197.19 529.75,-197.19 529.75,-191.19 535.75,-185.19 541.75,-185.19 541.75,-185.19 636.55,-185.19 636.55,-185.19 642.55,-185.19 648.55,-191.19 648.55,-197.19 648.55,-197.19 648.55,-212.96 648.55,-212.96 648.55,-218.96 642.55,-224.96 636.55,-224.96"/>
<text xml:space="preserve" text-anchor="middle" x="589.15" y="-207.77" font-family="Helvetica Neue" font-size="9.00" fill="#94a3b8">Send to ALL reviewers</text>
<text xml:space="preserve" text-anchor="middle" x="589.15" y="-196.52" font-family="Helvetica Neue" font-size="9.00" fill="#94a3b8">same day</text>
</g>
<!-- item2&#45;&gt;i2a -->
<g id="edge16" class="edge">
<title>item2&#45;&gt;i2a</title>
<path fill="none" stroke="#5a2020" stroke-width="2" d="M683.72,-279.92C640.29,-259.14 626.57,-248.85 606.17,-225.39"/>
</g>
<!-- i2b -->
<g id="node18" class="node">
<title>i2b</title>
<path fill="#111827" stroke="#334155" stroke-width="1.5" d="M752.05,-224.96C752.05,-224.96 678.25,-224.96 678.25,-224.96 672.25,-224.96 666.25,-218.96 666.25,-212.96 666.25,-212.96 666.25,-197.19 666.25,-197.19 666.25,-191.19 672.25,-185.19 678.25,-185.19 678.25,-185.19 752.05,-185.19 752.05,-185.19 758.05,-185.19 764.05,-191.19 764.05,-197.19 764.05,-197.19 764.05,-212.96 764.05,-212.96 764.05,-218.96 758.05,-224.96 752.05,-224.96"/>
<text xml:space="preserve" text-anchor="middle" x="715.15" y="-207.77" font-family="Helvetica Neue" font-size="9.00" fill="#94a3b8">Shared deadline</text>
<text xml:space="preserve" text-anchor="middle" x="715.15" y="-196.52" font-family="Helvetica Neue" font-size="9.00" fill="#94a3b8">(5 business days)</text>
</g>
<!-- item2&#45;&gt;i2b -->
<g id="edge17" class="edge">
<title>item2&#45;&gt;i2b</title>
<path fill="none" stroke="#5a2020" stroke-width="2" d="M729.41,-279.99C715.26,-259.48 712.87,-249.15 713.89,-225.53"/>
</g>
<!-- i2c -->
<g id="node19" class="node">
<title>i2c</title>
<path fill="#111827" stroke="#334155" stroke-width="1.5" d="M829.8,-129.56C829.8,-129.56 754.5,-129.56 754.5,-129.56 748.5,-129.56 742.5,-123.56 742.5,-117.56 742.5,-117.56 742.5,-101.78 742.5,-101.78 742.5,-95.78 748.5,-89.78 754.5,-89.78 754.5,-89.78 829.8,-89.78 829.8,-89.78 835.8,-89.78 841.8,-95.78 841.8,-101.78 841.8,-101.78 841.8,-117.56 841.8,-117.56 841.8,-123.56 835.8,-129.56 829.8,-129.56"/>
<text xml:space="preserve" text-anchor="middle" x="792.15" y="-112.37" font-family="Helvetica Neue" font-size="9.00" fill="#94a3b8">No reviewer waits</text>
<text xml:space="preserve" text-anchor="middle" x="792.15" y="-101.12" font-family="Helvetica Neue" font-size="9.00" fill="#94a3b8">for another</text>
</g>
<!-- item2&#45;&gt;i2c -->
<g id="edge18" class="edge">
<title>item2&#45;&gt;i2c</title>
<path fill="none" stroke="#5a2020" stroke-width="2" d="M746.87,-279.98C733.77,-211 737.64,-197.14 779.36,-130.08"/>
</g>
<!-- i3a -->
<g id="node20" class="node">
<title>i3a</title>
<path fill="#2a0d0d" stroke="#7f1d1d" stroke-width="1.5" d="M876.42,-224.96C876.42,-224.96 831.88,-224.96 831.88,-224.96 825.88,-224.96 819.88,-218.96 819.88,-212.96 819.88,-212.96 819.88,-197.19 819.88,-197.19 819.88,-191.19 825.88,-185.19 831.88,-185.19 831.88,-185.19 876.42,-185.19 876.42,-185.19 882.42,-185.19 888.42,-191.19 888.42,-197.19 888.42,-197.19 888.42,-212.96 888.42,-212.96 888.42,-218.96 882.42,-224.96 876.42,-224.96"/>
<text xml:space="preserve" text-anchor="middle" x="854.15" y="-207.77" font-family="Helvetica Neue" font-size="9.00" fill="#f87171">Budget</text>
<text xml:space="preserve" text-anchor="middle" x="854.15" y="-196.52" font-family="Helvetica Neue" font-size="9.00" fill="#f87171">approval?</text>
</g>
<!-- item3&#45;&gt;i3a -->
<g id="edge19" class="edge">
<title>item3&#45;&gt;i3a</title>
<path fill="none" stroke="#7f1d1d" stroke-width="2" d="M927.4,-279.9C892.33,-258.97 881.59,-248.71 866.76,-225.62"/>
</g>
<!-- i3b -->
<g id="node21" class="node">
<title>i3b</title>
<path fill="#2a0d0d" stroke="#7f1d1d" stroke-width="1.5" d="M961.67,-224.96C961.67,-224.96 918.62,-224.96 918.62,-224.96 912.62,-224.96 906.62,-218.96 906.62,-212.96 906.62,-212.96 906.62,-197.19 906.62,-197.19 906.62,-191.19 912.62,-185.19 918.62,-185.19 918.62,-185.19 961.67,-185.19 961.67,-185.19 967.67,-185.19 973.67,-191.19 973.67,-197.19 973.67,-197.19 973.67,-212.96 973.67,-212.96 973.67,-218.96 967.67,-224.96 961.67,-224.96"/>
<text xml:space="preserve" text-anchor="middle" x="940.15" y="-207.77" font-family="Helvetica Neue" font-size="9.00" fill="#f87171">Executive</text>
<text xml:space="preserve" text-anchor="middle" x="940.15" y="-196.52" font-family="Helvetica Neue" font-size="9.00" fill="#f87171">sponsor?</text>
</g>
<!-- item3&#45;&gt;i3b -->
<g id="edge20" class="edge">
<title>item3&#45;&gt;i3b</title>
<path fill="none" stroke="#7f1d1d" stroke-width="2" d="M958.06,-280.13C942.62,-259.23 939.71,-248.95 939.74,-225.44"/>
</g>
<!-- i3c -->
<g id="node22" class="node">
<title>i3c</title>
<path fill="#2a0d0d" stroke="#7f1d1d" stroke-width="1.5" d="M1048.8,-224.96C1048.8,-224.96 1003.5,-224.96 1003.5,-224.96 997.5,-224.96 991.5,-218.96 991.5,-212.96 991.5,-212.96 991.5,-197.19 991.5,-197.19 991.5,-191.19 997.5,-185.19 1003.5,-185.19 1003.5,-185.19 1048.8,-185.19 1048.8,-185.19 1054.8,-185.19 1060.8,-191.19 1060.8,-197.19 1060.8,-197.19 1060.8,-212.96 1060.8,-212.96 1060.8,-218.96 1054.8,-224.96 1048.8,-224.96"/>
<text xml:space="preserve" text-anchor="middle" x="1026.15" y="-207.77" font-family="Helvetica Neue" font-size="9.00" fill="#f87171">Regulated</text>
<text xml:space="preserve" text-anchor="middle" x="1026.15" y="-196.52" font-family="Helvetica Neue" font-size="9.00" fill="#f87171">data?</text>
</g>
<!-- item3&#45;&gt;i3c -->
<g id="edge21" class="edge">
<title>item3&#45;&gt;i3c</title>
<path fill="none" stroke="#7f1d1d" stroke-width="2" d="M982.96,-280.05C984.04,-259.11 989.48,-248.83 1008.91,-225.39"/>
</g>
<!-- i3d -->
<g id="node23" class="node">
<title>i3d</title>
<path fill="#2a0d0d" stroke="#7f1d1d" stroke-width="1.5" d="M1133.68,-224.96C1133.68,-224.96 1090.62,-224.96 1090.62,-224.96 1084.62,-224.96 1078.62,-218.96 1078.62,-212.96 1078.62,-212.96 1078.62,-197.19 1078.62,-197.19 1078.62,-191.19 1084.62,-185.19 1090.62,-185.19 1090.62,-185.19 1133.68,-185.19 1133.68,-185.19 1139.68,-185.19 1145.68,-191.19 1145.68,-197.19 1145.68,-197.19 1145.68,-212.96 1145.68,-212.96 1145.68,-218.96 1139.68,-224.96 1133.68,-224.96"/>
<text xml:space="preserve" text-anchor="middle" x="1112.15" y="-207.77" font-family="Helvetica Neue" font-size="9.00" fill="#f87171">Existing</text>
<text xml:space="preserve" text-anchor="middle" x="1112.15" y="-196.52" font-family="Helvetica Neue" font-size="9.00" fill="#f87171">contract?</text>
</g>
<!-- item3&#45;&gt;i3d -->
<g id="edge22" class="edge">
<title>item3&#45;&gt;i3d</title>
<path fill="none" stroke="#7f1d1d" stroke-width="2" d="M1001.83,-279.94C1016.69,-257.77 1031.4,-247.61 1078.11,-222.87"/>
</g>
<!-- i3e -->
<g id="node24" class="node">
<title>i3e</title>
<path fill="#2a0d0d" stroke="#7f1d1d" stroke-width="1.5" d="M1193.05,-129.56C1193.05,-129.56 1155.25,-129.56 1155.25,-129.56 1149.25,-129.56 1143.25,-123.56 1143.25,-117.56 1143.25,-117.56 1143.25,-101.78 1143.25,-101.78 1143.25,-95.78 1149.25,-89.78 1155.25,-89.78 1155.25,-89.78 1193.05,-89.78 1193.05,-89.78 1199.05,-89.78 1205.05,-95.78 1205.05,-101.78 1205.05,-101.78 1205.05,-117.56 1205.05,-117.56 1205.05,-123.56 1199.05,-129.56 1193.05,-129.56"/>
<text xml:space="preserve" text-anchor="middle" x="1174.15" y="-112.37" font-family="Helvetica Neue" font-size="9.00" fill="#f87171">Target</text>
<text xml:space="preserve" text-anchor="middle" x="1174.15" y="-101.12" font-family="Helvetica Neue" font-size="9.00" fill="#f87171">go&#45;live?</text>
</g>
<!-- item3&#45;&gt;i3e -->
<g id="edge23" class="edge">
<title>item3&#45;&gt;i3e</title>
<path fill="none" stroke="#7f1d1d" stroke-width="2" d="M994.81,-279.98C1023.57,-203.58 1037.53,-190.38 1142.81,-128.12"/>
</g>
<!-- tier_fast -->
<g id="node25" class="node">
<title>tier_fast</title>
<path fill="#0a3b1a" stroke="#22c55e" stroke-width="1.5" d="M1318.05,-230.59C1318.05,-230.59 1214.25,-230.59 1214.25,-230.59 1208.25,-230.59 1202.25,-224.59 1202.25,-218.59 1202.25,-218.59 1202.25,-191.56 1202.25,-191.56 1202.25,-185.56 1208.25,-179.56 1214.25,-179.56 1214.25,-179.56 1318.05,-179.56 1318.05,-179.56 1324.05,-179.56 1330.05,-185.56 1330.05,-191.56 1330.05,-191.56 1330.05,-218.59 1330.05,-218.59 1330.05,-224.59 1324.05,-230.59 1318.05,-230.59"/>
<text xml:space="preserve" text-anchor="middle" x="1266.15" y="-213.4" font-family="Helvetica Neue" font-size="9.00" fill="#4ade80">FAST&#45;TRACK</text>
<text xml:space="preserve" text-anchor="middle" x="1266.15" y="-202.15" font-family="Helvetica Neue" font-size="9.00" fill="#4ade80">6&#45;8 pts | 5 days</text>
<text xml:space="preserve" text-anchor="middle" x="1266.15" y="-190.9" font-family="Helvetica Neue" font-size="9.00" fill="#4ade80">Quarterback + 1 reviewer</text>
</g>
<!-- item4&#45;&gt;tier_fast -->
<g id="edge24" class="edge">
<title>item4&#45;&gt;tier_fast</title>
<path fill="none" stroke="#22c55e" stroke-width="2" d="M1491.56,-280.05C1429.75,-220.92 1408.07,-209.58 1330.73,-206.44"/>
</g>
<!-- tier_std -->
<g id="node26" class="node">
<title>tier_std</title>
<path fill="#3b2a0a" stroke="#f59e0b" stroke-width="1.5" d="M1440.43,-230.59C1440.43,-230.59 1359.88,-230.59 1359.88,-230.59 1353.88,-230.59 1347.88,-224.59 1347.88,-218.59 1347.88,-218.59 1347.88,-191.56 1347.88,-191.56 1347.88,-185.56 1353.88,-179.56 1359.88,-179.56 1359.88,-179.56 1440.43,-179.56 1440.43,-179.56 1446.43,-179.56 1452.43,-185.56 1452.43,-191.56 1452.43,-191.56 1452.43,-218.59 1452.43,-218.59 1452.43,-224.59 1446.43,-230.59 1440.43,-230.59"/>
<text xml:space="preserve" text-anchor="middle" x="1400.15" y="-213.4" font-family="Helvetica Neue" font-size="9.00" fill="#fbbf24">STANDARD</text>
<text xml:space="preserve" text-anchor="middle" x="1400.15" y="-202.15" font-family="Helvetica Neue" font-size="9.00" fill="#fbbf24">9&#45;13 pts | 15 days</text>
<text xml:space="preserve" text-anchor="middle" x="1400.15" y="-190.9" font-family="Helvetica Neue" font-size="9.00" fill="#fbbf24">4 reviewers parallel</text>
</g>
<!-- item4&#45;&gt;tier_std -->
<g id="edge25" class="edge">
<title>item4&#45;&gt;tier_std</title>
<path fill="none" stroke="#f59e0b" stroke-width="2" d="M1508.16,-280.2C1495.17,-256.94 1483.9,-246.47 1453.08,-230.49"/>
</g>
<!-- tier_enh -->
<g id="node27" class="node">
<title>tier_enh</title>
<path fill="#3b1010" stroke="#ef4444" stroke-width="1.5" d="M1565.55,-230.59C1565.55,-230.59 1482.75,-230.59 1482.75,-230.59 1476.75,-230.59 1470.75,-224.59 1470.75,-218.59 1470.75,-218.59 1470.75,-191.56 1470.75,-191.56 1470.75,-185.56 1476.75,-179.56 1482.75,-179.56 1482.75,-179.56 1565.55,-179.56 1565.55,-179.56 1571.55,-179.56 1577.55,-185.56 1577.55,-191.56 1577.55,-191.56 1577.55,-218.59 1577.55,-218.59 1577.55,-224.59 1571.55,-230.59 1565.55,-230.59"/>
<text xml:space="preserve" text-anchor="middle" x="1524.15" y="-213.4" font-family="Helvetica Neue" font-size="9.00" fill="#f87171">ENHANCED</text>
<text xml:space="preserve" text-anchor="middle" x="1524.15" y="-202.15" font-family="Helvetica Neue" font-size="9.00" fill="#f87171">14&#45;18 pts | 25 days</text>
<text xml:space="preserve" text-anchor="middle" x="1524.15" y="-190.9" font-family="Helvetica Neue" font-size="9.00" fill="#f87171">All 9 + exec briefing</text>
</g>
<!-- item4&#45;&gt;tier_enh -->
<g id="edge26" class="edge">
<title>item4&#45;&gt;tier_enh</title>
<path fill="none" stroke="#ef4444" stroke-width="2" d="M1535.33,-280.11C1541.63,-259.88 1541.43,-249.66 1534.73,-231.13"/>
</g>
<!-- i4_dims -->
<g id="node28" class="node">
<title>i4_dims</title>
<path fill="#111827" stroke="#334155" stroke-width="1.5" d="M1521.68,-129.56C1521.68,-129.56 1436.62,-129.56 1436.62,-129.56 1430.62,-129.56 1424.62,-123.56 1424.62,-117.56 1424.62,-117.56 1424.62,-101.78 1424.62,-101.78 1424.62,-95.78 1430.62,-89.78 1436.62,-89.78 1436.62,-89.78 1521.68,-89.78 1521.68,-89.78 1527.68,-89.78 1533.68,-95.78 1533.68,-101.78 1533.68,-101.78 1533.68,-117.56 1533.68,-117.56 1533.68,-123.56 1527.68,-129.56 1521.68,-129.56"/>
<text xml:space="preserve" text-anchor="middle" x="1479.15" y="-112.37" font-family="Helvetica Neue" font-size="9.00" fill="#94a3b8">Score 6 Dimensions</text>
<text xml:space="preserve" text-anchor="middle" x="1479.15" y="-101.12" font-family="Helvetica Neue" font-size="9.00" fill="#94a3b8">1&#45;3 each</text>
</g>
<!-- item4&#45;&gt;i4_dims -->
<g id="edge27" class="edge">
<title>item4&#45;&gt;i4_dims</title>
<path fill="none" stroke="#5a4a10" stroke-width="2" d="M1527.27,-280.13C1535.1,-197.44 1532.02,-183.37 1494.07,-130.26"/>
</g>
<!-- i5a -->
<g id="node29" class="node">
<title>i5a</title>
<path fill="#111827" stroke="#334155" stroke-width="1.5" d="M1722.93,-224.96C1722.93,-224.96 1645.38,-224.96 1645.38,-224.96 1639.38,-224.96 1633.38,-218.96 1633.38,-212.96 1633.38,-212.96 1633.38,-197.19 1633.38,-197.19 1633.38,-191.19 1639.38,-185.19 1645.38,-185.19 1645.38,-185.19 1722.93,-185.19 1722.93,-185.19 1728.93,-185.19 1734.93,-191.19 1734.93,-197.19 1734.93,-197.19 1734.93,-212.96 1734.93,-212.96 1734.93,-218.96 1728.93,-224.96 1722.93,-224.96"/>
<text xml:space="preserve" text-anchor="middle" x="1684.15" y="-207.77" font-family="Helvetica Neue" font-size="9.00" fill="#60a5fa">Pipeline Summary</text>
<text xml:space="preserve" text-anchor="middle" x="1684.15" y="-196.52" font-family="Helvetica Neue" font-size="9.00" fill="#60a5fa">2 min</text>
</g>
<!-- item5&#45;&gt;i5a -->
<g id="edge28" class="edge">
<title>item5&#45;&gt;i5a</title>
<path fill="none" stroke="#5a4a10" stroke-width="2" d="M1824.15,-279.89C1804.62,-258.53 1786.58,-248.32 1733.18,-225.58"/>
</g>
<!-- i5b -->
<g id="node30" class="node">
<title>i5b</title>
<path fill="#111827" stroke="#334155" stroke-width="1.5" d="M1825.68,-224.96C1825.68,-224.96 1764.62,-224.96 1764.62,-224.96 1758.62,-224.96 1752.62,-218.96 1752.62,-212.96 1752.62,-212.96 1752.62,-197.19 1752.62,-197.19 1752.62,-191.19 1758.62,-185.19 1764.62,-185.19 1764.62,-185.19 1825.68,-185.19 1825.68,-185.19 1831.68,-185.19 1837.68,-191.19 1837.68,-197.19 1837.68,-197.19 1837.68,-212.96 1837.68,-212.96 1837.68,-218.96 1831.68,-224.96 1825.68,-224.96"/>
<text xml:space="preserve" text-anchor="middle" x="1795.15" y="-207.77" font-family="Helvetica Neue" font-size="9.00" fill="#f87171">SLA Breaches</text>
<text xml:space="preserve" text-anchor="middle" x="1795.15" y="-196.52" font-family="Helvetica Neue" font-size="9.00" fill="#f87171">10 min</text>
</g>
<!-- item5&#45;&gt;i5b -->
<g id="edge29" class="edge">
<title>item5&#45;&gt;i5b</title>
<path fill="none" stroke="#5a4a10" stroke-width="2" d="M1847.42,-280.12C1844.36,-259.23 1837.69,-248.94 1815.13,-225.44"/>
</g>
<!-- i5c -->
<g id="node31" class="node">
<title>i5c</title>
<path fill="#111827" stroke="#334155" stroke-width="1.5" d="M1942.43,-224.96C1942.43,-224.96 1867.88,-224.96 1867.88,-224.96 1861.88,-224.96 1855.88,-218.96 1855.88,-212.96 1855.88,-212.96 1855.88,-197.19 1855.88,-197.19 1855.88,-191.19 1861.88,-185.19 1867.88,-185.19 1867.88,-185.19 1942.43,-185.19 1942.43,-185.19 1948.43,-185.19 1954.43,-191.19 1954.43,-197.19 1954.43,-197.19 1954.43,-212.96 1954.43,-212.96 1954.43,-218.96 1948.43,-224.96 1942.43,-224.96"/>
<text xml:space="preserve" text-anchor="middle" x="1905.15" y="-207.77" font-family="Helvetica Neue" font-size="9.00" fill="#fbbf24">At&#45;Risk Requests</text>
<text xml:space="preserve" text-anchor="middle" x="1905.15" y="-196.52" font-family="Helvetica Neue" font-size="9.00" fill="#fbbf24">8 min</text>
</g>
<!-- item5&#45;&gt;i5c -->
<g id="edge30" class="edge">
<title>item5&#45;&gt;i5c</title>
<path fill="none" stroke="#5a4a10" stroke-width="2" d="M1879.27,-280.2C1897.33,-259.35 1901.35,-249.06 1903.6,-225.5"/>
</g>
<!-- i5d -->
<g id="node32" class="node">
<title>i5d</title>
<path fill="#111827" stroke="#334155" stroke-width="1.5" d="M2033.68,-224.96C2033.68,-224.96 1984.62,-224.96 1984.62,-224.96 1978.62,-224.96 1972.62,-218.96 1972.62,-212.96 1972.62,-212.96 1972.62,-197.19 1972.62,-197.19 1972.62,-191.19 1978.62,-185.19 1984.62,-185.19 1984.62,-185.19 2033.68,-185.19 2033.68,-185.19 2039.68,-185.19 2045.68,-191.19 2045.68,-197.19 2045.68,-197.19 2045.68,-212.96 2045.68,-212.96 2045.68,-218.96 2039.68,-224.96 2033.68,-224.96"/>
<text xml:space="preserve" text-anchor="middle" x="2009.15" y="-207.77" font-family="Helvetica Neue" font-size="9.00" fill="#4ade80">New Intake</text>
<text xml:space="preserve" text-anchor="middle" x="2009.15" y="-196.52" font-family="Helvetica Neue" font-size="9.00" fill="#4ade80">5 min</text>
</g>
<!-- item5&#45;&gt;i5d -->
<g id="edge31" class="edge">
<title>item5&#45;&gt;i5d</title>
<path fill="none" stroke="#5a4a10" stroke-width="2" d="M1917.24,-279.92C1959.54,-259 1972.94,-248.74 1992.45,-225.63"/>
</g>
<!-- i5e -->
<g id="node33" class="node">
<title>i5e</title>
<path fill="#111827" stroke="#334155" stroke-width="1.5" d="M1645.55,-129.56C1645.55,-129.56 1568.75,-129.56 1568.75,-129.56 1562.75,-129.56 1556.75,-123.56 1556.75,-117.56 1556.75,-117.56 1556.75,-101.78 1556.75,-101.78 1556.75,-95.78 1562.75,-89.78 1568.75,-89.78 1568.75,-89.78 1645.55,-89.78 1645.55,-89.78 1651.55,-89.78 1657.55,-95.78 1657.55,-101.78 1657.55,-101.78 1657.55,-117.56 1657.55,-117.56 1657.55,-123.56 1651.55,-129.56 1645.55,-129.56"/>
<text xml:space="preserve" text-anchor="middle" x="1607.15" y="-112.37" font-family="Helvetica Neue" font-size="9.00" fill="#94a3b8">Decisions Needed</text>
<text xml:space="preserve" text-anchor="middle" x="1607.15" y="-101.12" font-family="Helvetica Neue" font-size="9.00" fill="#94a3b8">5 min</text>
</g>
<!-- item5&#45;&gt;i5e -->
<g id="edge32" class="edge">
<title>item5&#45;&gt;i5e</title>
<path fill="none" stroke="#5a4a10" stroke-width="2" d="M1833.4,-279.91C1792.74,-204.26 1775.07,-190.49 1650.07,-130.24"/>
</g>
<!-- i6a -->
<g id="node34" class="node">
<title>i6a</title>
<path fill="#111827" stroke="#334155" stroke-width="1.5" d="M2144.15,-223.07C2144.15,-223.07 2114.15,-223.07 2114.15,-223.07 2108.15,-223.07 2102.15,-217.07 2102.15,-211.07 2102.15,-211.07 2102.15,-199.07 2102.15,-199.07 2102.15,-193.07 2108.15,-187.07 2114.15,-187.07 2114.15,-187.07 2144.15,-187.07 2144.15,-187.07 2150.15,-187.07 2156.15,-193.07 2156.15,-199.07 2156.15,-199.07 2156.15,-211.07 2156.15,-211.07 2156.15,-217.07 2150.15,-223.07 2144.15,-223.07"/>
<text xml:space="preserve" text-anchor="middle" x="2129.15" y="-202.15" font-family="Helvetica Neue" font-size="9.00" fill="#94a3b8">Intake</text>
</g>
<!-- item6&#45;&gt;i6a -->
<g id="edge33" class="edge">
<title>item6&#45;&gt;i6a</title>
<path fill="none" stroke="#1a5a2a" stroke-width="2" d="M2323.43,-279.85C2290.26,-255.84 2261.21,-245.84 2156.61,-213.54"/>
</g>
<!-- i6b -->
<g id="node35" class="node">
<title>i6b</title>
<path fill="#111827" stroke="#334155" stroke-width="1.5" d="M2245.93,-223.07C2245.93,-223.07 2186.38,-223.07 2186.38,-223.07 2180.38,-223.07 2174.38,-217.07 2174.38,-211.07 2174.38,-211.07 2174.38,-199.07 2174.38,-199.07 2174.38,-193.07 2180.38,-187.07 2186.38,-187.07 2186.38,-187.07 2245.93,-187.07 2245.93,-187.07 2251.93,-187.07 2257.93,-193.07 2257.93,-199.07 2257.93,-199.07 2257.93,-211.07 2257.93,-211.07 2257.93,-217.07 2251.93,-223.07 2245.93,-223.07"/>
<text xml:space="preserve" text-anchor="middle" x="2216.15" y="-202.15" font-family="Helvetica Neue" font-size="9.00" fill="#94a3b8">Due Diligence</text>
</g>
<!-- item6&#45;&gt;i6b -->
<g id="edge34" class="edge">
<title>item6&#45;&gt;i6b</title>
<path fill="none" stroke="#1a5a2a" stroke-width="2" d="M2340.26,-279.92C2323.07,-258.87 2306.28,-248.55 2255.1,-223.74"/>
</g>
<!-- i6c -->
<g id="node36" class="node">
<title>i6c</title>
<path fill="#111827" stroke="#334155" stroke-width="1.5" d="M2342.3,-223.07C2342.3,-223.07 2288,-223.07 2288,-223.07 2282,-223.07 2276,-217.07 2276,-211.07 2276,-211.07 2276,-199.07 2276,-199.07 2276,-193.07 2282,-187.07 2288,-187.07 2288,-187.07 2342.3,-187.07 2342.3,-187.07 2348.3,-187.07 2354.3,-193.07 2354.3,-199.07 2354.3,-199.07 2354.3,-211.07 2354.3,-211.07 2354.3,-217.07 2348.3,-223.07 2342.3,-223.07"/>
<text xml:space="preserve" text-anchor="middle" x="2315.15" y="-202.15" font-family="Helvetica Neue" font-size="9.00" fill="#94a3b8">Gov. Review</text>
</g>
<!-- item6&#45;&gt;i6c -->
<g id="edge35" class="edge">
<title>item6&#45;&gt;i6c</title>
<path fill="none" stroke="#1a5a2a" stroke-width="2" d="M2362.09,-280.13C2360.09,-259.1 2353.77,-248.76 2331.6,-223.51"/>
</g>
<!-- i6d -->
<g id="node37" class="node">
<title>i6d</title>
<path fill="#111827" stroke="#334155" stroke-width="1.5" d="M2437.55,-223.07C2437.55,-223.07 2384.75,-223.07 2384.75,-223.07 2378.75,-223.07 2372.75,-217.07 2372.75,-211.07 2372.75,-211.07 2372.75,-199.07 2372.75,-199.07 2372.75,-193.07 2378.75,-187.07 2384.75,-187.07 2384.75,-187.07 2437.55,-187.07 2437.55,-187.07 2443.55,-187.07 2449.55,-193.07 2449.55,-199.07 2449.55,-199.07 2449.55,-211.07 2449.55,-211.07 2449.55,-217.07 2443.55,-223.07 2437.55,-223.07"/>
<text xml:space="preserve" text-anchor="middle" x="2411.15" y="-202.15" font-family="Helvetica Neue" font-size="9.00" fill="#94a3b8">Contracting</text>
</g>
<!-- item6&#45;&gt;i6d -->
<g id="edge36" class="edge">
<title>item6&#45;&gt;i6d</title>
<path fill="none" stroke="#1a5a2a" stroke-width="2" d="M2390.24,-280.14C2407,-259.12 2410.02,-248.78 2410.83,-223.52"/>
</g>
<!-- i6e -->
<g id="node38" class="node">
<title>i6e</title>
<path fill="#111827" stroke="#334155" stroke-width="1.5" d="M2516.68,-223.07C2516.68,-223.07 2479.62,-223.07 2479.62,-223.07 2473.62,-223.07 2467.62,-217.07 2467.62,-211.07 2467.62,-211.07 2467.62,-199.07 2467.62,-199.07 2467.62,-193.07 2473.62,-187.07 2479.62,-187.07 2479.62,-187.07 2516.68,-187.07 2516.68,-187.07 2522.68,-187.07 2528.68,-193.07 2528.68,-199.07 2528.68,-199.07 2528.68,-211.07 2528.68,-211.07 2528.68,-217.07 2522.68,-223.07 2516.68,-223.07"/>
<text xml:space="preserve" text-anchor="middle" x="2498.15" y="-202.15" font-family="Helvetica Neue" font-size="9.00" fill="#94a3b8">Go&#45;Live</text>
</g>
<!-- item6&#45;&gt;i6e -->
<g id="edge37" class="edge">
<title>item6&#45;&gt;i6e</title>
<path fill="none" stroke="#1a5a2a" stroke-width="2" d="M2420.1,-281.02C2458.67,-259.3 2469.51,-249.05 2486.28,-223.65"/>
</g>
<!-- i6f -->
<g id="node39" class="node">
<title>i6f</title>
<path fill="#111827" stroke="#334155" stroke-width="1.5" d="M1772.3,-129.56C1772.3,-129.56 1688,-129.56 1688,-129.56 1682,-129.56 1676,-123.56 1676,-117.56 1676,-117.56 1676,-101.78 1676,-101.78 1676,-95.78 1682,-89.78 1688,-89.78 1688,-89.78 1772.3,-89.78 1772.3,-89.78 1778.3,-89.78 1784.3,-95.78 1784.3,-101.78 1784.3,-101.78 1784.3,-117.56 1784.3,-117.56 1784.3,-123.56 1778.3,-129.56 1772.3,-129.56"/>
<text xml:space="preserve" text-anchor="middle" x="1730.15" y="-112.37" font-family="Helvetica Neue" font-size="9.00" fill="#94a3b8">Color by age</text>
<text xml:space="preserve" text-anchor="middle" x="1730.15" y="-101.12" font-family="Helvetica Neue" font-size="9.00" fill="#94a3b8">Green | Yellow | Red</text>
</g>
<!-- item6&#45;&gt;i6f -->
<g id="edge38" class="edge">
<title>item6&#45;&gt;i6f</title>
<path fill="none" stroke="#1a5a2a" stroke-width="2" d="M2312.45,-280.05C2180.68,-198.92 2137.63,-188.02 1784.81,-120.17"/>
</g>
<!-- i7_sla -->
<g id="node40" class="node">
<title>i7_sla</title>
<path fill="#1e293b" stroke="#22c55e" stroke-width="1.5" d="M2659.43,-223.07C2659.43,-223.07 2596.88,-223.07 2596.88,-223.07 2590.88,-223.07 2584.88,-217.07 2584.88,-211.07 2584.88,-211.07 2584.88,-199.07 2584.88,-199.07 2584.88,-193.07 2590.88,-187.07 2596.88,-187.07 2596.88,-187.07 2659.43,-187.07 2659.43,-187.07 2665.43,-187.07 2671.43,-193.07 2671.43,-199.07 2671.43,-199.07 2671.43,-211.07 2671.43,-211.07 2671.43,-217.07 2665.43,-223.07 2659.43,-223.07"/>
<text xml:space="preserve" text-anchor="middle" x="2628.15" y="-201.57" font-family="Helvetica Neue Bold" font-size="10.00" fill="#4ade80">Phase SLAs</text>
</g>
<!-- item7&#45;&gt;i7_sla -->
<g id="edge39" class="edge">
<title>item7&#45;&gt;i7_sla</title>
<path fill="none" stroke="#1a5a2a" stroke-width="2" d="M2640.02,-280.23C2646.75,-259.26 2645.25,-248.9 2635.51,-223.57"/>
</g>
<!-- i7_esc -->
<g id="node47" class="node">
<title>i7_esc</title>
<path fill="#1e293b" stroke="#ef4444" stroke-width="1.5" d="M2756.68,-225.71C2756.68,-225.71 2701.62,-225.71 2701.62,-225.71 2695.62,-225.71 2689.62,-219.71 2689.62,-213.71 2689.62,-213.71 2689.62,-196.44 2689.62,-196.44 2689.62,-190.44 2695.62,-184.44 2701.62,-184.44 2701.62,-184.44 2756.68,-184.44 2756.68,-184.44 2762.68,-184.44 2768.68,-190.44 2768.68,-196.44 2768.68,-196.44 2768.68,-213.71 2768.68,-213.71 2768.68,-219.71 2762.68,-225.71 2756.68,-225.71"/>
<text xml:space="preserve" text-anchor="middle" x="2729.15" y="-207.57" font-family="Helvetica Neue Bold" font-size="10.00" fill="#f87171">Escalation</text>
<text xml:space="preserve" text-anchor="middle" x="2729.15" y="-195.57" font-family="Helvetica Neue Bold" font-size="10.00" fill="#f87171">Ladder</text>
</g>
<!-- item7&#45;&gt;i7_esc -->
<g id="edge40" class="edge">
<title>item7&#45;&gt;i7_esc</title>
<path fill="none" stroke="#ef4444" stroke-width="2" d="M2674.38,-279.95C2702.09,-259.85 2710.3,-249.5 2720.44,-226.29"/>
</g>
<!-- imp1 -->
<g id="node51" class="node">
<title>imp1</title>
<path fill="#1a2e1a" stroke="#22c55e" stroke-width="1.5" stroke-dasharray="5,2" d="M541.3,-39.78C541.3,-39.78 463,-39.78 463,-39.78 457,-39.78 451,-33.78 451,-27.78 451,-27.78 451,-12 451,-12 451,-6 457,0 463,0 463,0 541.3,0 541.3,0 547.3,0 553.3,-6 553.3,-12 553.3,-12 553.3,-27.78 553.3,-27.78 553.3,-33.78 547.3,-39.78 541.3,-39.78"/>
<text xml:space="preserve" text-anchor="middle" x="502.15" y="-22.59" font-family="Helvetica Neue Bold" font-size="9.00" fill="#4ade80">IMPACT: Visibility</text>
<text xml:space="preserve" text-anchor="middle" x="502.15" y="-11.34" font-family="Helvetica Neue Bold" font-size="9.00" fill="#4ade80">alone cuts delays</text>
</g>
<!-- i1e&#45;&gt;imp1 -->
<g id="edge50" class="edge">
<title>i1e&#45;&gt;imp1</title>
<path fill="none" stroke="#22c55e" stroke-width="1.5" stroke-dasharray="5,2" d="M494.98,-89.03C487.56,-66.57 487.13,-57.93 493.71,-40.3"/>
</g>
<!-- imp2 -->
<g id="node52" class="node">
<title>imp2</title>
<path fill="#1a2e1a" stroke="#22c55e" stroke-width="1.5" stroke-dasharray="5,2" d="M866.17,-39.78C866.17,-39.78 718.12,-39.78 718.12,-39.78 712.12,-39.78 706.12,-33.78 706.12,-27.78 706.12,-27.78 706.12,-12 706.12,-12 706.12,-6 712.12,0 718.12,0 718.12,0 866.17,0 866.17,0 872.17,0 878.17,-6 878.17,-12 878.17,-12 878.17,-27.78 878.17,-27.78 878.17,-33.78 872.17,-39.78 866.17,-39.78"/>
<text xml:space="preserve" text-anchor="middle" x="792.15" y="-22.59" font-family="Helvetica Neue Bold" font-size="9.00" fill="#4ade80">IMPACT: 8&#45;12 wks u2192 2&#45;3 wks</text>
<text xml:space="preserve" text-anchor="middle" x="792.15" y="-11.34" font-family="Helvetica Neue Bold" font-size="9.00" fill="#4ade80">Worth 2&#45;3 months</text>
</g>
<!-- i2c&#45;&gt;imp2 -->
<g id="edge51" class="edge">
<title>i2c&#45;&gt;imp2</title>
<path fill="none" stroke="#22c55e" stroke-width="1.5" stroke-dasharray="5,2" d="M785.48,-89.12C778.19,-65.63 777.58,-56.83 783.64,-40.31"/>
</g>
<!-- imp3 -->
<g id="node53" class="node">
<title>imp3</title>
<path fill="#1a2e1a" stroke="#22c55e" stroke-width="1.5" stroke-dasharray="5,2" d="M1212.93,-39.78C1212.93,-39.78 1135.38,-39.78 1135.38,-39.78 1129.38,-39.78 1123.38,-33.78 1123.38,-27.78 1123.38,-27.78 1123.38,-12 1123.38,-12 1123.38,-6 1129.38,0 1135.38,0 1135.38,0 1212.93,0 1212.93,0 1218.93,0 1224.93,-6 1224.93,-12 1224.93,-12 1224.93,-27.78 1224.93,-27.78 1224.93,-33.78 1218.93,-39.78 1212.93,-39.78"/>
<text xml:space="preserve" text-anchor="middle" x="1174.15" y="-22.59" font-family="Helvetica Neue Bold" font-size="9.00" fill="#4ade80">IMPACT: Filters</text>
<text xml:space="preserve" text-anchor="middle" x="1174.15" y="-11.34" font-family="Helvetica Neue Bold" font-size="9.00" fill="#4ade80">20&#45;30% at intake</text>
</g>
<!-- i3e&#45;&gt;imp3 -->
<g id="edge52" class="edge">
<title>i3e&#45;&gt;imp3</title>
<path fill="none" stroke="#22c55e" stroke-width="1.5" stroke-dasharray="5,2" d="M1169.78,-89.23C1164.3,-62.85 1163.33,-53.01 1166.88,-40.16"/>
</g>
<!-- imp4 -->
<g id="node54" class="node">
<title>imp4</title>
<path fill="#1a2e1a" stroke="#22c55e" stroke-width="1.5" stroke-dasharray="5,2" d="M1518.43,-39.78C1518.43,-39.78 1431.88,-39.78 1431.88,-39.78 1425.88,-39.78 1419.88,-33.78 1419.88,-27.78 1419.88,-27.78 1419.88,-12 1419.88,-12 1419.88,-6 1425.88,0 1431.88,0 1431.88,0 1518.43,0 1518.43,0 1524.43,0 1530.43,-6 1530.43,-12 1530.43,-12 1530.43,-27.78 1530.43,-27.78 1530.43,-33.78 1524.43,-39.78 1518.43,-39.78"/>
<text xml:space="preserve" text-anchor="middle" x="1475.15" y="-22.59" font-family="Helvetica Neue Bold" font-size="9.00" fill="#4ade80">IMPACT: 40&#45;50%</text>
<text xml:space="preserve" text-anchor="middle" x="1475.15" y="-11.34" font-family="Helvetica Neue Bold" font-size="9.00" fill="#4ade80">move to Fast&#45;Track</text>
</g>
<!-- i4_dims&#45;&gt;imp4 -->
<g id="edge53" class="edge">
<title>i4_dims&#45;&gt;imp4</title>
<path fill="none" stroke="#22c55e" stroke-width="1.5" stroke-dasharray="5,2" d="M1480.81,-89.06C1482.92,-61.97 1483.21,-51.3 1480.94,-40.18"/>
</g>
<!-- imp5 -->
<g id="node55" class="node">
<title>imp5</title>
<path fill="#1a2e1a" stroke="#22c55e" stroke-width="1.5" stroke-dasharray="5,2" d="M1654.18,-39.78C1654.18,-39.78 1560.12,-39.78 1560.12,-39.78 1554.12,-39.78 1548.12,-33.78 1548.12,-27.78 1548.12,-27.78 1548.12,-12 1548.12,-12 1548.12,-6 1554.12,0 1560.12,0 1560.12,0 1654.18,0 1654.18,0 1660.18,0 1666.18,-6 1666.18,-12 1666.18,-12 1666.18,-27.78 1666.18,-27.78 1666.18,-33.78 1660.18,-39.78 1654.18,-39.78"/>
<text xml:space="preserve" text-anchor="middle" x="1607.15" y="-22.59" font-family="Helvetica Neue Bold" font-size="9.00" fill="#4ade80">IMPACT: Decisions</text>
<text xml:space="preserve" text-anchor="middle" x="1607.15" y="-11.34" font-family="Helvetica Neue Bold" font-size="9.00" fill="#4ade80">in &lt;5 days vs 2&#45;4 wks</text>
</g>
<!-- i5e&#45;&gt;imp5 -->
<g id="edge54" class="edge">
<title>i5e&#45;&gt;imp5</title>
<path fill="none" stroke="#22c55e" stroke-width="1.5" stroke-dasharray="5,2" d="M1611.69,-89.1C1617.29,-63.03 1618.26,-53.25 1614.61,-40.32"/>
</g>
<!-- imp6 -->
<g id="node56" class="node">
<title>imp6</title>
<path fill="#1a2e1a" stroke="#22c55e" stroke-width="1.5" stroke-dasharray="5,2" d="M1781.68,-39.78C1781.68,-39.78 1696.62,-39.78 1696.62,-39.78 1690.62,-39.78 1684.62,-33.78 1684.62,-27.78 1684.62,-27.78 1684.62,-12 1684.62,-12 1684.62,-6 1690.62,0 1696.62,0 1696.62,0 1781.68,0 1781.68,0 1787.68,0 1793.68,-6 1793.68,-12 1793.68,-12 1793.68,-27.78 1793.68,-27.78 1793.68,-33.78 1787.68,-39.78 1781.68,-39.78"/>
<text xml:space="preserve" text-anchor="middle" x="1739.15" y="-22.59" font-family="Helvetica Neue Bold" font-size="9.00" fill="#4ade80">IMPACT: Social</text>
<text xml:space="preserve" text-anchor="middle" x="1739.15" y="-11.34" font-family="Helvetica Neue Bold" font-size="9.00" fill="#4ade80">pressure + visibility</text>
</g>
<!-- i6f&#45;&gt;imp6 -->
<g id="edge55" class="edge">
<title>i6f&#45;&gt;imp6</title>
<path fill="none" stroke="#22c55e" stroke-width="1.5" stroke-dasharray="5,2" d="M1737.53,-89.21C1746.31,-64.27 1748.09,-54.99 1744.96,-40.52"/>
</g>
<!-- s1 -->
<g id="node41" class="node">
<title>s1</title>
<path fill="#111827" stroke="#334155" stroke-width="1.5" d="M1857.68,-127.67C1857.68,-127.67 1814.62,-127.67 1814.62,-127.67 1808.62,-127.67 1802.62,-121.67 1802.62,-115.67 1802.62,-115.67 1802.62,-103.67 1802.62,-103.67 1802.62,-97.67 1808.62,-91.67 1814.62,-91.67 1814.62,-91.67 1857.68,-91.67 1857.68,-91.67 1863.68,-91.67 1869.68,-97.67 1869.68,-103.67 1869.68,-103.67 1869.68,-115.67 1869.68,-115.67 1869.68,-121.67 1863.68,-127.67 1857.68,-127.67"/>
<text xml:space="preserve" text-anchor="middle" x="1836.15" y="-106.75" font-family="Helvetica Neue" font-size="9.00" fill="#94a3b8">Triage: 2d</text>
</g>
<!-- i7_sla&#45;&gt;s1 -->
<g id="edge41" class="edge">
<title>i7_sla&#45;&gt;s1</title>
<path fill="none" stroke="#1a5a2a" stroke-width="2" d="M2584.24,-192.02C2392.03,-135.24 2355.35,-132.54 1870.3,-111.17"/>
</g>
<!-- s2 -->
<g id="node42" class="node">
<title>s2</title>
<path fill="#111827" stroke="#334155" stroke-width="1.5" d="M1955.05,-127.67C1955.05,-127.67 1899.25,-127.67 1899.25,-127.67 1893.25,-127.67 1887.25,-121.67 1887.25,-115.67 1887.25,-115.67 1887.25,-103.67 1887.25,-103.67 1887.25,-97.67 1893.25,-91.67 1899.25,-91.67 1899.25,-91.67 1955.05,-91.67 1955.05,-91.67 1961.05,-91.67 1967.05,-97.67 1967.05,-103.67 1967.05,-103.67 1967.05,-115.67 1967.05,-115.67 1967.05,-121.67 1961.05,-127.67 1955.05,-127.67"/>
<text xml:space="preserve" text-anchor="middle" x="1927.15" y="-106.75" font-family="Helvetica Neue" font-size="9.00" fill="#94a3b8">Planning: 5d</text>
</g>
<!-- i7_sla&#45;&gt;s2 -->
<g id="edge42" class="edge">
<title>i7_sla&#45;&gt;s2</title>
<path fill="none" stroke="#1a5a2a" stroke-width="2" d="M2584.23,-191.07C2420.2,-139.19 2383.31,-135.79 1967.55,-111.98"/>
</g>
<!-- s3 -->
<g id="node43" class="node">
<title>s3</title>
<path fill="#111827" stroke="#334155" stroke-width="1.5" d="M2077.05,-127.67C2077.05,-127.67 1997.25,-127.67 1997.25,-127.67 1991.25,-127.67 1985.25,-121.67 1985.25,-115.67 1985.25,-115.67 1985.25,-103.67 1985.25,-103.67 1985.25,-97.67 1991.25,-91.67 1997.25,-91.67 1997.25,-91.67 2077.05,-91.67 2077.05,-91.67 2083.05,-91.67 2089.05,-97.67 2089.05,-103.67 2089.05,-103.67 2089.05,-115.67 2089.05,-115.67 2089.05,-121.67 2083.05,-127.67 2077.05,-127.67"/>
<text xml:space="preserve" text-anchor="middle" x="2037.15" y="-106.75" font-family="Helvetica Neue" font-size="9.00" fill="#94a3b8">Due Diligence: 10d</text>
</g>
<!-- i7_sla&#45;&gt;s3 -->
<g id="edge43" class="edge">
<title>i7_sla&#45;&gt;s3</title>
<path fill="none" stroke="#1a5a2a" stroke-width="2" d="M2584.35,-189.46C2454.63,-143.76 2417.67,-139.17 2089.72,-113.74"/>
</g>
<!-- s4 -->
<g id="node44" class="node">
<title>s4</title>
<path fill="#111827" stroke="#334155" stroke-width="1.5" d="M2188.8,-127.67C2188.8,-127.67 2119.5,-127.67 2119.5,-127.67 2113.5,-127.67 2107.5,-121.67 2107.5,-115.67 2107.5,-115.67 2107.5,-103.67 2107.5,-103.67 2107.5,-97.67 2113.5,-91.67 2119.5,-91.67 2119.5,-91.67 2188.8,-91.67 2188.8,-91.67 2194.8,-91.67 2200.8,-97.67 2200.8,-103.67 2200.8,-103.67 2200.8,-115.67 2200.8,-115.67 2200.8,-121.67 2194.8,-127.67 2188.8,-127.67"/>
<text xml:space="preserve" text-anchor="middle" x="2154.15" y="-106.75" font-family="Helvetica Neue" font-size="9.00" fill="#94a3b8">Gov. Review: 5d</text>
</g>
<!-- i7_sla&#45;&gt;s4 -->
<g id="edge44" class="edge">
<title>i7_sla&#45;&gt;s4</title>
<path fill="none" stroke="#1a5a2a" stroke-width="2" d="M2584.29,-186.69C2488.39,-147.3 2452.77,-141.84 2201.37,-114.75"/>
</g>
<!-- s5 -->
<g id="node45" class="node">
<title>s5</title>
<path fill="#111827" stroke="#334155" stroke-width="1.5" d="M2299.05,-127.67C2299.05,-127.67 2231.25,-127.67 2231.25,-127.67 2225.25,-127.67 2219.25,-121.67 2219.25,-115.67 2219.25,-115.67 2219.25,-103.67 2219.25,-103.67 2219.25,-97.67 2225.25,-91.67 2231.25,-91.67 2231.25,-91.67 2299.05,-91.67 2299.05,-91.67 2305.05,-91.67 2311.05,-97.67 2311.05,-103.67 2311.05,-103.67 2311.05,-115.67 2311.05,-115.67 2311.05,-121.67 2305.05,-127.67 2299.05,-127.67"/>
<text xml:space="preserve" text-anchor="middle" x="2265.15" y="-106.75" font-family="Helvetica Neue" font-size="9.00" fill="#94a3b8">Contracting: 7d</text>
</g>
<!-- i7_sla&#45;&gt;s5 -->
<g id="edge45" class="edge">
<title>i7_sla&#45;&gt;s5</title>
<path fill="none" stroke="#1a5a2a" stroke-width="2" d="M2592.35,-186.35C2522.74,-150.8 2493.58,-144.53 2311.61,-116.74"/>
</g>
<!-- s6 -->
<g id="node46" class="node">
<title>s6</title>
<path fill="#111827" stroke="#334155" stroke-width="1.5" d="M2393.18,-127.67C2393.18,-127.67 2341.12,-127.67 2341.12,-127.67 2335.12,-127.67 2329.12,-121.67 2329.12,-115.67 2329.12,-115.67 2329.12,-103.67 2329.12,-103.67 2329.12,-97.67 2335.12,-91.67 2341.12,-91.67 2341.12,-91.67 2393.18,-91.67 2393.18,-91.67 2399.18,-91.67 2405.18,-97.67 2405.18,-103.67 2405.18,-103.67 2405.18,-115.67 2405.18,-115.67 2405.18,-121.67 2399.18,-127.67 2393.18,-127.67"/>
<text xml:space="preserve" text-anchor="middle" x="2367.15" y="-106.75" font-family="Helvetica Neue" font-size="9.00" fill="#94a3b8">Go&#45;Live: 5d</text>
</g>
<!-- i7_sla&#45;&gt;s6 -->
<g id="edge46" class="edge">
<title>i7_sla&#45;&gt;s6</title>
<path fill="none" stroke="#1a5a2a" stroke-width="2" d="M2601.88,-186.46C2554.18,-153.54 2532.44,-146.77 2405.77,-118.31"/>
</g>
<!-- e0 -->
<g id="node48" class="node">
<title>e0</title>
<path fill="#111827" stroke="#334155" stroke-width="1.5" d="M2509.43,-129.56C2509.43,-129.56 2434.88,-129.56 2434.88,-129.56 2428.88,-129.56 2422.88,-123.56 2422.88,-117.56 2422.88,-117.56 2422.88,-101.78 2422.88,-101.78 2422.88,-95.78 2428.88,-89.78 2434.88,-89.78 2434.88,-89.78 2509.43,-89.78 2509.43,-89.78 2515.43,-89.78 2521.43,-95.78 2521.43,-101.78 2521.43,-101.78 2521.43,-117.56 2521.43,-117.56 2521.43,-123.56 2515.43,-129.56 2509.43,-129.56"/>
<text xml:space="preserve" text-anchor="middle" x="2472.15" y="-112.37" font-family="Helvetica Neue" font-size="9.00" fill="#4ade80">50&#45;70%</text>
<text xml:space="preserve" text-anchor="middle" x="2472.15" y="-101.12" font-family="Helvetica Neue" font-size="9.00" fill="#4ade80">Friendly reminder</text>
</g>
<!-- i7_esc&#45;&gt;e0 -->
<g id="edge47" class="edge">
<title>i7_esc&#45;&gt;e0</title>
<path fill="none" stroke="#5a2020" stroke-width="2" d="M2699.25,-183.85C2656.6,-154.7 2632.99,-146.96 2522.17,-121.21"/>
</g>
<!-- e1 -->
<g id="node49" class="node">
<title>e1</title>
<path fill="#111827" stroke="#334155" stroke-width="1.5" d="M2635.3,-129.56C2635.3,-129.56 2551,-129.56 2551,-129.56 2545,-129.56 2539,-123.56 2539,-117.56 2539,-117.56 2539,-101.78 2539,-101.78 2539,-95.78 2545,-89.78 2551,-89.78 2551,-89.78 2635.3,-89.78 2635.3,-89.78 2641.3,-89.78 2647.3,-95.78 2647.3,-101.78 2647.3,-101.78 2647.3,-117.56 2647.3,-117.56 2647.3,-123.56 2641.3,-129.56 2635.3,-129.56"/>
<text xml:space="preserve" text-anchor="middle" x="2593.15" y="-112.37" font-family="Helvetica Neue" font-size="9.00" fill="#fbbf24">100%</text>
<text xml:space="preserve" text-anchor="middle" x="2593.15" y="-101.12" font-family="Helvetica Neue" font-size="9.00" fill="#fbbf24">Reviewer&#39;s manager</text>
</g>
<!-- i7_esc&#45;&gt;e1 -->
<g id="edge48" class="edge">
<title>i7_esc&#45;&gt;e1</title>
<path fill="none" stroke="#5a2020" stroke-width="2" d="M2714.18,-183.69C2696.46,-159.66 2684.12,-150.68 2639.29,-130.18"/>
</g>
<!-- e2 -->
<g id="node50" class="node">
<title>e2</title>
<path fill="#111827" stroke="#334155" stroke-width="1.5" d="M2757.05,-129.56C2757.05,-129.56 2677.25,-129.56 2677.25,-129.56 2671.25,-129.56 2665.25,-123.56 2665.25,-117.56 2665.25,-117.56 2665.25,-101.78 2665.25,-101.78 2665.25,-95.78 2671.25,-89.78 2677.25,-89.78 2677.25,-89.78 2757.05,-89.78 2757.05,-89.78 2763.05,-89.78 2769.05,-95.78 2769.05,-101.78 2769.05,-101.78 2769.05,-117.56 2769.05,-117.56 2769.05,-123.56 2763.05,-129.56 2757.05,-129.56"/>
<text xml:space="preserve" text-anchor="middle" x="2717.15" y="-112.37" font-family="Helvetica Neue" font-size="9.00" fill="#f87171">140%</text>
<text xml:space="preserve" text-anchor="middle" x="2717.15" y="-101.12" font-family="Helvetica Neue" font-size="9.00" fill="#f87171">CISO / CRO / CFO</text>
</g>
<!-- i7_esc&#45;&gt;e2 -->
<g id="edge49" class="edge">
<title>i7_esc&#45;&gt;e2</title>
<path fill="none" stroke="#5a2020" stroke-width="2" d="M2734.61,-183.87C2740.12,-160.53 2739.09,-151.61 2728.13,-130.12"/>
</g>
<!-- imp7 -->
<g id="node57" class="node">
<title>imp7</title>
<path fill="#1a2e1a" stroke="#22c55e" stroke-width="1.5" stroke-dasharray="5,2" d="M2757.43,-39.78C2757.43,-39.78 2652.88,-39.78 2652.88,-39.78 2646.88,-39.78 2640.88,-33.78 2640.88,-27.78 2640.88,-27.78 2640.88,-12 2640.88,-12 2640.88,-6 2646.88,0 2652.88,0 2652.88,0 2757.43,0 2757.43,0 2763.43,0 2769.43,-6 2769.43,-12 2769.43,-12 2769.43,-27.78 2769.43,-27.78 2769.43,-33.78 2763.43,-39.78 2757.43,-39.78"/>
<text xml:space="preserve" text-anchor="middle" x="2705.15" y="-22.59" font-family="Helvetica Neue Bold" font-size="9.00" fill="#4ade80">IMPACT: Accountability</text>
<text xml:space="preserve" text-anchor="middle" x="2705.15" y="-11.34" font-family="Helvetica Neue Bold" font-size="9.00" fill="#4ade80">where none exists</text>
</g>
<!-- e2&#45;&gt;imp7 -->
<g id="edge56" class="edge">
<title>e2&#45;&gt;imp7</title>
<path fill="none" stroke="#22c55e" stroke-width="1.5" stroke-dasharray="5,2" d="M2722.07,-89.19C2726.88,-67.35 2726.05,-58.79 2716.48,-40.31"/>
</g>
</g>
</svg>
